<svg xmlns="http://www.w3.org/2000/svg" version="1.1" xmlns:xlink="http://www.w3.org/1999/xlink" xmlns:svgjs="http://svgjs.dev/svgjs" width="2000" height="2627" viewBox="0 0 2000 2627"><g transform="matrix(1,0,0,1,-2.0825547379409954,1.0635627530364218)"><svg viewBox="0 0 188 247" data-background-color="#ffffff" preserveAspectRatio="xMidYMid meet" height="2627" width="2000" xmlns="http://www.w3.org/2000/svg" xmlns:xlink="http://www.w3.org/1999/xlink"><g id="tight-bounds" transform="matrix(1,0,0,1,0.19576014536644948,-0.09999999999999432)"><svg viewBox="0 0 187.6084797092671 247.2" height="247.2" width="187.6084797092671"><g><svg viewBox="0 0 187.6084797092671 247.2" height="247.2" width="187.6084797092671"><g><svg viewBox="0 0 187.6084797092671 247.2" height="247.2" width="187.6084797092671"><g id="textblocktransform"><svg viewBox="0 0 187.6084797092671 247.2" height="247.2" width="187.6084797092671" id="textblock"><g><svg viewBox="0 0 187.6084797092671 247.2" height="247.2" width="187.6084797092671"><g transform="matrix(1,0,0,1,0,0)"><svg width="187.6084797092671" viewBox="1.88 -39.6 30.59 40.31" height="247.2" data-palette-color="#ff0000"><g class="wordmark-text-0" data-fill-palette-color="primary" id="text-0"><path d="M20.14 0.71L20.14 0.71Q18.14 0.71 16.72 0.42 15.31 0.12 14.1-0.54 12.89-1.2 11.52-2.25L11.52-2.25 10.67 0 2.78 0 2.78-11.89 10.62-11.89Q11.38-9.84 12.95-9 14.53-8.15 16.82-8.15L16.82-8.15Q18.24-8.15 19.24-8.73 20.24-9.3 20.24-10.25L20.24-10.25Q20.24-11.45 19.21-12.05 18.19-12.65 16.33-13.16L16.33-13.16Q13.96-13.79 12.05-14.5 10.13-15.21 8.62-15.97L8.62-15.97Q5.59-17.48 3.74-20.26 1.88-23.05 1.88-27.66L1.88-27.66Q1.88-31.2 3.42-33.91L3.42-33.91Q4.93-36.6 7.78-38.1 10.62-39.6 14.48-39.6L14.48-39.6Q19.19-39.6 21.92-36.6L21.92-36.6 23.17-38.89 30.18-38.89 30.18-27.25 22.68-27.25Q21.63-29.44 20.36-30.3 19.09-31.15 16.87-31.15L16.87-31.15Q15.19-31.15 14.26-30.55 13.33-29.96 13.33-28.91L13.33-28.91Q13.33-27.73 14.67-27.12L14.67-27.12Q15.99-26.49 18.43-25.95L18.43-25.95Q22.71-24.98 25.81-23.49L25.81-23.49Q28.83-22 30.65-19.27 32.47-16.55 32.47-12.26L32.47-12.26Q32.47-8.62 30.96-5.66L30.96-5.66Q29.42-2.71 26.6-1 23.78 0.71 20.14 0.71Z" fill="#ff0000" data-fill-palette-color="primary"></path></g></svg></g></svg></g></svg></g></svg></g></svg></g><defs></defs></svg><rect width="187.6084797092671" height="247.2" fill="none" stroke="none" visibility="hidden"></rect></g></svg></g></svg>